<!-- Generated by IcoMoon.io -->
<svg version="1.1" xmlns="http://www.w3.org/2000/svg" width="15" height="15" viewBox="0 0 15 15">
<title>edit-2</title>
<path fill="#15c394" d="M10.183 1.433l-8.438 8.438c-0.073 0.072-0.131 0.168-0.161 0.277l-0.937 3.438c-0.029 0.102-0.031 0.216 0 0.329 0.091 0.333 0.434 0.529 0.768 0.439l3.438-0.938c0.099-0.026 0.197-0.081 0.277-0.161l8.438-8.438c0.467-0.467 0.701-1.081 0.701-1.692s-0.234-1.225-0.701-1.692-1.081-0.701-1.692-0.701-1.225 0.234-1.692 0.701zM11.067 2.317c0.223-0.223 0.515-0.334 0.808-0.334s0.585 0.111 0.808 0.335 0.334 0.514 0.334 0.807-0.111 0.585-0.334 0.808l-8.32 8.32-2.223 0.606 0.606-2.222z"></path>
</svg>
