<!-- Generated by IcoMoon.io -->
<svg version="1.1" xmlns="http://www.w3.org/2000/svg" width="20" height="20" viewBox="0 0 20 20">
<title>lock</title>
<path d="M9.375 13.697v0 0c-0.364-0.129-0.625-0.476-0.625-0.884 0-0.518 0.42-0.938 0.938-0.938s0.938 0.42 0.938 0.938c0 0.408-0.261 0.755-0.625 0.884v1.621c0 0.164-0.14 0.307-0.313 0.307-0.168 0-0.313-0.137-0.313-0.307v-1.621zM8.75 14.063v1.249c0 0.518 0.416 0.939 0.938 0.939 0.518 0 0.938-0.419 0.938-0.939v-1.249c0.38-0.285 0.625-0.739 0.625-1.25 0-0.863-0.7-1.563-1.563-1.563s-1.563 0.7-1.563 1.563c0 0.511 0.245 0.965 0.625 1.25v0 0zM5 8.75v-2.188c0-2.589 2.099-4.687 4.688-4.687 2.584 0 4.688 2.098 4.688 4.687v2.188c1.037 0.003 1.875 0.844 1.875 1.881v6.238c0 1.046-0.842 1.881-1.88 1.881h-9.364c-1.039 0-1.88-0.842-1.88-1.881v-6.238c0-1.044 0.839-1.878 1.875-1.881v0 0zM5.625 8.75h0.625v-2.182c0-1.905 1.539-3.443 3.438-3.443 1.895 0 3.438 1.542 3.438 3.443v2.182h0.625v-2.192c0-2.241-1.823-4.058-4.063-4.058-2.244 0-4.063 1.818-4.063 4.058v2.192zM6.875 8.75h5.625v-2.187c0-1.554-1.262-2.813-2.813-2.813-1.553 0-2.813 1.256-2.813 2.813v2.187zM4.998 9.375c-0.689 0-1.248 0.561-1.248 1.254v6.243c0 0.692 0.557 1.254 1.248 1.254h9.378c0.689 0 1.248-0.561 1.248-1.254v-6.243c0-0.692-0.557-1.254-1.248-1.254h-9.378z"></path>
</svg>
