<!-- Generated by IcoMoon.io -->
<svg version="1.1" xmlns="http://www.w3.org/2000/svg" width="20" height="20" viewBox="0 0 20 20">
<title>phone</title>
<path d="M19.167 14.1c0.013-0.595-0.197-1.17-0.561-1.619-0.383-0.472-0.941-0.806-1.604-0.9-0.667-0.082-1.412-0.262-2.155-0.538-0.361-0.133-0.744-0.182-1.12-0.145-0.553 0.053-1.089 0.291-1.516 0.712l-0.6 0.6c-1.475-0.931-2.8-2.223-3.819-3.824l0.605-0.605c0.268-0.275 0.469-0.605 0.589-0.963 0.177-0.527 0.178-1.113-0.032-1.676-0.241-0.628-0.432-1.37-0.537-2.163-0.087-0.595-0.38-1.121-0.803-1.503-0.449-0.405-1.047-0.649-1.689-0.642h-2.497c-0.073 0-0.152 0.003-0.228 0.010-0.687 0.063-1.285 0.398-1.694 0.888s-0.632 1.139-0.569 1.832c0.25 2.563 1.138 5.202 2.68 7.585 1.252 2.011 3.040 3.853 5.248 5.255 2.14 1.414 4.737 2.385 7.572 2.692 0.077 0.008 0.159 0.011 0.24 0.011 0.69-0.003 1.315-0.286 1.765-0.739s0.728-1.081 0.725-1.768zM17.5 14.1v2.5c0.001 0.233-0.091 0.442-0.242 0.593s-0.358 0.246-0.588 0.247c-2.624-0.28-4.968-1.159-6.886-2.427-2.023-1.286-3.632-2.948-4.752-4.745-1.414-2.183-2.212-4.567-2.437-6.865-0.020-0.223 0.053-0.438 0.191-0.603s0.336-0.275 0.565-0.296l2.573-0.004c0.226-0.002 0.423 0.078 0.572 0.213 0.142 0.128 0.24 0.305 0.269 0.507 0.118 0.893 0.34 1.764 0.631 2.521 0.067 0.18 0.067 0.373 0.008 0.548-0.041 0.121-0.109 0.234-0.202 0.329l-1.052 1.051c-0.27 0.27-0.316 0.678-0.135 1.001 1.32 2.321 3.199 4.131 5.317 5.315 0.331 0.185 0.735 0.12 0.996-0.138l1.058-1.058c0.138-0.137 0.314-0.214 0.498-0.232 0.127-0.012 0.258 0.004 0.382 0.050 0.852 0.318 1.725 0.53 2.528 0.628 0.201 0.028 0.385 0.138 0.512 0.296 0.123 0.151 0.193 0.343 0.188 0.568z"></path>
</svg>
