<svg xmlns="http://www.w3.org/2000/svg" width="18.849" height="18.841" viewBox="0 0 18.849 18.841">
    <g id="prefix__filter" transform="translate(0 -.103)">
        <g id="prefix__Group_361" data-name="Group 361" transform="translate(0 .103)">
            <path id="prefix__Path_53" d="M18.113.1H.736A.736.736 0 0 0 0 .839 12.9 12.9 0 0 0 2.656 8.7a12.145 12.145 0 0 0 4.191 3.235V16.4a.736.736 0 0 0 .412.661l3.681 1.8a.736.736 0 0 0 1.06-.653v-3.034a.736.736 0 1 0-1.473 0v1.854L8.32 15.945v-4.474a.736.736 0 0 0-.429-.669A11.054 11.054 0 0 1 3.85 7.837a11.586 11.586 0 0 1-2.355-6.261h15.86A11.586 11.586 0 0 1 15 7.837a10.172 10.172 0 0 1-4.015 2.975.736.736 0 1 0 .564 1.36A11.631 11.631 0 0 0 16.193 8.7 12.9 12.9 0 0 0 18.849.839.736.736 0 0 0 18.113.1z" data-name="Path 53" transform="translate(0 -.103)" style="fill:#3a4248"/>
        </g>
    </g>
</svg>
