<!-- Generated by IcoMoon.io -->
<svg version="1.1" xmlns="http://www.w3.org/2000/svg" width="20" height="20" viewBox="0 0 20 20">
<title>map-marker</title>
<path fill="#15c394" d="M10 1.111c-4.296 0.005-7.778 3.467-7.778 7.737 0 6.139 5.577 9.23 7.232 9.947 0.143 0.062 0.296 0.094 0.449 0.094 0.033 0 0.065-0.007 0.097-0.010 0.033 0.003 0.065 0.010 0.097 0.010 0.152 0 0.305-0.031 0.449-0.094 1.655-0.717 7.232-3.809 7.232-9.947 0-4.27-3.481-7.731-7.778-7.737zM10.098 16.55c-0.029-0.015-0.066-0.034-0.098-0.050-0.032 0.016-0.068 0.035-0.098 0.050-1.426-0.72-5.458-3.159-5.458-7.702 0-3.038 2.491-5.509 5.556-5.514 3.064 0.005 5.556 2.477 5.556 5.514 0 4.543-4.032 6.982-5.458 7.702z"></path>
<path fill="#15c394" d="M10 6.666c-1.227 0-2.222 0.995-2.222 2.223s0.995 2.222 2.222 2.222 2.222-0.995 2.222-2.222c0-1.228-0.995-2.223-2.222-2.223z"></path>
</svg>
